<?xml version="1.0" standalone="no"?>
<!DOCTYPE svg PUBLIC "-//W3C//DTD SVG 20010904//EN"
 "http://www.w3.org/TR/2001/REC-SVG-20010904/DTD/svg10.dtd">
<svg version="1.0" xmlns="http://www.w3.org/2000/svg"
 width="1080.000000pt" height="1080.000000pt" viewBox="0 0 1080.000000 1080.000000"
 preserveAspectRatio="xMidYMid meet">

<g transform="translate(0.000000,1080.000000) scale(0.100000,-0.100000)"
fill="#000000" stroke="none">
<path d="M5115 9459 c-1600 -113 -2993 -1165 -3540 -2674 -323 -892 -323
-1878 0 -2770 410 -1132 1308 -2030 2440 -2440 1282 -464 2716 -254 3811 560
638 475 1128 1133 1399 1880 464 1282 254 2716 -560 3811 -827 1112 -2170
1730 -3550 1633z m540 -249 c935 -66 1789 -454 2445 -1110 372 -373 667 -823
859 -1315 339 -866 344 -1872 14 -2735 -347 -907 -1006 -1636 -1872 -2070
-404 -202 -859 -334 -1321 -382 -161 -16 -599 -16 -760 0 -357 37 -690 119
-1020 249 -802 317 -1466 888 -1905 1637 -82 140 -203 396 -268 566 -331 867
-326 1868 14 2735 303 774 834 1412 1554 1866 145 92 436 236 620 308 512 201
1093 290 1640 251z"/>
<path d="M4770 7196 l0 -1164 203 -80 c111 -43 264 -103 340 -133 l137 -53 0
-506 0 -506 -329 -128 c-181 -71 -334 -132 -340 -135 -8 -5 -11 -50 -9 -147
l3 -139 1035 412 c569 226 1038 412 1043 412 4 1 7 -11 7 -25 0 -35 26 -137
52 -204 87 -220 270 -374 533 -446 93 -25 347 -31 460 -9 284 53 502 227 592
473 51 139 52 157 53 1035 l0 817 -140 0 -140 0 0 -818 c0 -900 2 -873 -62
-1000 -83 -166 -246 -264 -462 -278 -247 -16 -451 87 -551 277 -65 124 -65
115 -65 1012 l0 807 -140 0 -140 0 -2 -588 -3 -589 -907 361 -908 360 0 875 0
876 36 -65 c20 -36 288 -464 597 -953 l560 -888 146 3 146 3 3 1148 2 1147
-135 0 -135 0 0 -947 0 -948 -43 76 c-23 42 -289 469 -592 948 l-550 871 -147
0 -148 0 0 -1164z m1381 -1704 c250 -99 484 -190 522 -203 37 -13 67 -27 67
-30 0 -4 -12 -10 -27 -14 -14 -3 -251 -94 -526 -201 -274 -107 -501 -194 -503
-194 -2 0 -4 185 -4 410 0 226 4 410 8 410 5 0 213 -80 463 -178z"/>
<path d="M2137 7003 c-10 -10 -8 -557 3 -723 21 -321 122 -564 316 -762 166
-169 374 -267 633 -299 l101 -13 0 -1133 0 -1133 140 0 140 0 0 448 1 447 156
165 c86 91 160 166 163 168 4 1 172 -274 374 -613 l368 -615 164 0 163 0 -430
717 c-236 394 -428 722 -427 729 2 7 176 196 388 421 212 224 389 414 394 421
6 9 -29 12 -163 12 l-170 0 -377 -397 c-413 -435 -474 -499 -552 -586 l-52
-59 0 509 0 508 98 18 c116 22 241 67 348 128 108 60 280 232 348 347 56 94
108 227 138 351 19 78 21 124 25 519 l4 432 -1144 0 c-629 0 -1147 -3 -1150
-7z m2053 -440 c0 -295 -25 -471 -85 -607 -105 -238 -300 -390 -563 -440 -259
-49 -543 -21 -736 73 -231 113 -381 349 -415 654 -6 53 -11 184 -11 292 l0
195 905 0 905 0 0 -167z"/>
<path d="M5012 3238 l3 -723 123 -3 122 -3 0 586 0 585 410 0 410 0 0 -535 0
-536 123 3 122 3 3 533 2 532 370 0 370 0 0 -580 0 -580 120 0 120 0 0 720 0
720 -1150 0 -1150 0 2 -722z"/>
</g>
</svg>
